<svg width="128" height="128" viewBox="0 0 100 100" fill="none" xmlns="http://www.w3.org/2000/svg" id="main-logo">
                <defs>
                    <linearGradient id="grad1" x1="0%" y1="0%" x2="100%" y2="100%">
                        <stop offset="0%" style="stop-color:#60A5FA;stop-opacity:1"/>
                        <stop offset="100%" style="stop-color:#2563EB;stop-opacity:1"/>
                    </linearGradient>
                    <filter id="shadow" x="-20%" y="-20%" width="140%" height="140%">
                        <feDropShadow dx="1" dy="2" stdDeviation="1" flood-color="#000" flood-opacity="0.15"/>
                    </filter>
                </defs>
                
                <!-- Group representing the cloud structure -->
                <g filter="url(#shadow)">
                    <!-- Center Hex -->
                    <path d="M50 42 L59 47 V57 L50 62 L41 57 V47 Z" fill="url(#grad1)" stroke="white" stroke-width="1"/>
                    
                    <!-- Right Hex -->
                    <path d="M69 42 L78 47 V57 L69 62 L60 57 V47 Z" fill="url(#grad1)" stroke="white" stroke-width="1"/>
                    
                    <!-- Left Hex -->
                    <path d="M31 42 L40 47 V57 L31 62 L22 57 V47 Z" fill="url(#grad1)" stroke="white" stroke-width="1"/>
                    
                    <!-- Top Right Hex -->
                    <path d="M60 26 L69 31 V41 L60 46 L51 41 V31 Z" fill="url(#grad1)" stroke="white" stroke-width="1"/>
                    
                    <!-- Top Left Hex -->
                    <path d="M40 26 L49 31 V41 L40 46 L31 41 V31 Z" fill="url(#grad1)" stroke="white" stroke-width="1"/>
                    
                    <!-- Bottom Right Hex -->
                    <path d="M60 58 L69 63 V73 L60 78 L51 73 V63 Z" fill="url(#grad1)" stroke="white" stroke-width="1"/>
                    
                    <!-- Bottom Left Hex -->
                    <path d="M40 58 L49 63 V73 L40 78 L31 73 V63 Z" fill="url(#grad1)" stroke="white" stroke-width="1"/>
                    
                    <!-- Connecting Lines/Circuitry (Optional details) -->
                    <circle cx="50" cy="52" r="2" fill="white" fill-opacity="0.5"/>
                    <circle cx="69" cy="52" r="2" fill="white" fill-opacity="0.5"/>
                    <circle cx="31" cy="52" r="2" fill="white" fill-opacity="0.5"/>
                </g>
            </svg>